<svg width="47" height="51" viewBox="0 0 47 51" fill="none" xmlns="http://www.w3.org/2000/svg">
<path d="M15.5432 30.7183C14.1969 30.147 12.8506 29.7288 11.6258 28.78C12.7292 28.7187 13.5693 29.239 14.5006 29.4533C13.1746 28.3617 11.7574 27.3925 10.7249 25.9744C11.8181 26.6987 12.9114 27.4129 14.0046 28.1372C14.035 28.1066 14.0653 28.0862 14.0856 28.0556C13.3466 27.2803 12.6178 26.5151 11.8789 25.7397C11.9092 25.6887 11.9396 25.6377 11.97 25.5867C12.2736 25.7499 12.6279 25.852 12.8709 26.0866C13.8528 27.015 14.7942 27.9842 15.7457 28.9432C15.9987 29.1982 16.2214 29.4635 16.5049 29.7696C16.7073 29.5757 16.8591 29.4125 17.0211 29.2799C17.3045 29.0656 17.2539 28.8616 17.0818 28.5963C15.8165 26.6783 14.1362 25.1888 12.1825 24.0564C10.6844 23.1892 9.0648 22.5363 7.50594 21.7814C6.83785 21.4549 6.17989 21.108 5.5118 20.7714C5.54217 20.6897 5.56241 20.6081 5.59278 20.5265C6.08879 20.6285 6.59491 20.7203 7.20226 20.8428C6.24062 20.0164 5.15751 19.4757 4.55016 18.4249C4.58053 18.3841 4.60077 18.3331 4.63114 18.2923C5.84584 19.0472 7.05043 19.8022 8.39672 20.6387C7.49582 19.4043 6.68601 18.3025 5.88633 17.2006C5.92682 17.1598 5.96732 17.119 6.01793 17.0782C6.43295 17.4863 6.86822 17.8638 7.25287 18.2923C8.28537 19.4553 9.25713 20.6795 10.3301 21.7916C10.8261 22.3017 11.5043 22.6281 12.0914 23.0464C12.8911 23.6075 13.6807 24.1788 14.5512 24.8012C14.4905 24.6175 14.4702 24.4951 14.4095 24.4033C12.7393 21.5671 10.9071 18.833 8.57893 16.4865C8.17403 16.0784 7.62741 15.7826 7.10103 15.5377C6.20013 15.1296 5.24862 14.8236 4.32747 14.4665C3.77073 14.2523 3.22411 14.0074 2.83945 13.5177C2.8597 13.4565 2.87994 13.4055 2.90019 13.3443C3.69987 13.5483 4.50967 13.7626 5.30935 13.9666C3.74036 12.5383 2.02965 11.2529 0.976907 9.33487C2.40418 10.5183 3.83146 11.7017 5.24861 12.8954C5.2891 12.8648 5.3296 12.824 5.35996 12.7934C4.59065 11.6915 3.82134 10.5795 3.06215 9.4777C3.11276 9.42669 3.16338 9.37568 3.21399 9.32467C3.45693 9.52871 3.74036 9.70214 3.93269 9.94699C4.76273 11.0284 5.52192 12.1812 6.40258 13.232C7.15165 14.1196 8.04243 14.895 8.82186 15.752C9.54056 16.5375 10.1985 17.3741 10.8767 18.1902C10.978 18.3127 11.0893 18.4453 11.1905 18.5677C11.231 18.5473 11.2715 18.5269 11.3221 18.4963C11.1905 18.1902 11.0589 17.874 10.9172 17.5781C10.2491 16.1804 9.66203 14.7215 8.87248 13.3953C7.79949 11.5997 6.48356 9.9776 4.7931 8.71255C4.35783 8.38608 3.8011 8.24325 3.28485 8.02901C2.51554 7.70254 1.68549 7.4883 1.05789 6.77416C1.96892 6.55992 2.69774 7.17204 3.65938 7.32507C2.81921 6.40688 1.58426 6.07022 1.17936 4.92759C1.21985 4.86637 1.25022 4.81536 1.29071 4.75415C1.68549 4.9786 2.09039 5.21324 2.55602 5.4785C2.19161 4.82557 1.85757 4.23385 1.53365 3.63193C1.56401 3.60132 1.59438 3.57072 1.62475 3.54011C1.83732 3.71354 2.08026 3.85637 2.24222 4.06041C3.28484 5.37648 4.28698 6.72315 5.33972 8.0188C6.26087 9.15123 7.23263 10.2531 8.255 11.3243C7.89059 10.4775 7.55655 9.62053 7.15165 8.79416C6.64552 7.74335 6.27099 6.62113 5.4207 5.77436C4.26673 4.63173 3.13301 3.4789 1.99929 2.31586C1.67536 1.9792 1.40206 1.60172 1.16924 1.17323C2.53578 1.82617 3.46705 3.0096 4.56028 3.9992C4.60077 3.9686 4.64126 3.94819 4.68175 3.91759C4.06428 2.64233 3.4468 1.37728 2.81921 0.10202C2.86982 0.0714143 2.93056 0.0306061 2.98117 0C3.96306 1.46909 4.95506 2.93819 5.93694 4.40728C5.96731 4.39708 6.0078 4.38688 6.03817 4.37668C5.84584 3.32587 5.65352 2.28526 5.47131 1.23445C5.53205 1.21404 5.59278 1.19364 5.65351 1.18344C5.73449 1.39768 5.83572 1.60172 5.87621 1.82617C6.06854 2.77496 6.17989 3.74415 6.4532 4.66233C6.80749 5.82537 7.28324 6.94759 7.73876 8.06981C7.99182 8.70234 8.31574 9.31447 8.69027 9.92659C8.73076 7.9984 8.15378 6.10082 8.37648 4.17264C8.43721 4.16244 8.48783 4.15223 8.54856 4.13183C8.72064 4.59092 8.8826 5.05001 9.05469 5.5091C9.08505 5.5091 9.11542 5.5091 9.14579 5.5091C9.29762 4.67253 9.44946 3.82577 9.62154 2.90758C10.1074 3.25445 10.0771 3.64213 10.0366 3.9992C9.86448 5.4785 9.67216 6.95779 9.48995 8.42689C9.46971 8.56971 9.48995 8.71255 9.54057 8.86558C10.0973 7.93719 10.3099 6.83537 11.0589 6.03961C11.1096 6.04981 11.1602 6.07021 11.2007 6.08042C11.1905 6.23345 11.2108 6.39668 11.1602 6.52931C10.9071 7.30466 10.654 8.06981 10.3706 8.83497C9.90498 10.0796 9.65191 11.3549 9.87461 12.6709C9.99608 13.3749 10.32 14.0482 10.6136 14.7113C11.3525 16.4049 12.1117 18.0882 12.8911 19.7614C13.2454 20.5265 13.6503 21.2611 14.035 22.016C14.0957 22.0058 14.1463 21.9854 14.207 21.9752C14.1362 21.5671 14.0957 21.1488 14.0046 20.7407C13.7718 19.7614 13.5086 18.782 13.2657 17.8026C13.0328 16.8844 12.7798 15.9764 12.5874 15.048C12.4761 14.4971 12.4559 13.9258 12.3951 13.3647C12.466 13.3443 12.5267 13.3341 12.5976 13.3137C12.8506 13.9156 13.1138 14.5277 13.4175 15.2623C13.5896 14.2216 13.7414 13.3035 13.8933 12.3853C13.9439 12.3853 13.9945 12.3955 14.035 12.3955C14.1058 13.6401 14.1767 14.895 14.2577 16.1396C14.2982 16.1498 14.3386 16.1498 14.3893 16.16C14.7435 15.3643 14.8346 14.4359 15.6546 13.8442C15.5938 14.2114 15.5533 14.5685 15.4724 14.9358C15.1788 16.2519 14.784 17.5577 14.5917 18.8942C14.4905 19.6287 14.7031 20.4041 14.8144 21.159C14.9662 22.1486 14.9865 23.2096 15.3813 24.087C16.0595 25.5867 16.9907 26.964 17.8512 28.4637C18.1042 28.2188 18.2459 28.0658 18.4079 27.923C18.6508 27.7087 18.6508 27.5047 18.5294 27.2088C18.084 26.1682 17.6588 25.1174 17.2539 24.0666C17.1325 23.7402 17.1122 23.3831 17.0515 23.0362C17.1122 23.0158 17.1628 22.9852 17.2236 22.9648C17.5677 23.6177 17.922 24.2605 18.3472 25.0562C18.2662 23.4443 17.8613 21.9752 18.2965 20.4959C18.8837 21.4447 18.6812 22.5975 19.0861 23.73C19.3189 22.9036 19.5214 22.1894 19.7238 21.4549C20.2299 21.5977 20.2299 21.914 20.1591 22.2404C19.9668 23.1994 19.7441 24.1584 19.5517 25.1174C19.4708 25.5459 19.4404 25.9846 19.3999 26.4233C19.3898 26.5253 19.4708 26.6273 19.5315 26.8212C21.7686 24.6073 23.955 22.4445 26.1415 20.2817C25.0179 19.0166 24.6434 17.5679 25.0078 15.9866C25.1495 15.3847 25.4633 14.7522 25.8783 14.3033C29.7856 10.0082 33.7334 5.74375 37.6711 1.4691C37.7115 1.41809 37.7723 1.38748 37.8229 1.34667C38.5011 1.73435 38.5922 2.22405 38.1063 2.78516C35.1303 6.23345 32.1442 9.68174 29.1783 13.1402C28.9758 13.3749 28.7025 13.6299 29.0264 13.9768C29.2997 14.2625 29.8362 14.3237 30.1399 14.0584C30.5651 13.6707 30.9598 13.2525 31.3647 12.8444C34.2294 9.91639 37.1042 6.9884 39.9689 4.06041C40.0903 3.93799 40.1814 3.79516 40.2827 3.68294C41.0419 4.09102 41.1431 4.58072 40.6268 5.17244C37.6812 8.57992 34.7355 11.9976 31.8 15.4051C31.5571 15.6805 31.1724 15.9662 31.6077 16.3845C31.9215 16.6905 32.4681 16.6395 32.8325 16.2723C34.5128 14.5583 36.1831 12.824 37.8836 11.1202C39.564 9.44709 41.2646 7.80456 42.9955 6.12122C43.5522 6.40688 43.6636 6.93739 43.1878 7.4883C40.2321 10.906 37.2763 14.3339 34.3205 17.7618C34.0978 18.0168 33.6828 18.2719 34.0776 18.7003C34.4015 19.0574 34.938 19.037 35.3429 18.6391C36.6082 17.3639 37.8634 16.0784 39.1186 14.793C41.0925 12.773 43.0664 10.7427 45.0504 8.72274C45.1719 8.60032 45.2933 8.4983 45.5261 8.27386C45.7286 8.68194 45.9007 9.02881 46.0728 9.38588C44.8884 10.6713 43.7345 11.9364 42.5805 13.1912C39.8373 16.1702 37.0637 19.1186 34.3711 22.1384C32.7211 23.9952 30.15 24.036 28.581 22.4853C28.5304 22.4343 28.4798 22.4037 28.3887 22.3323C28.2267 22.5261 28.0547 22.7097 27.9028 22.9036C26.4452 24.6481 24.9875 26.3927 23.5299 28.1168C23.3072 28.3821 23.2465 28.6065 23.3679 28.9432C23.6109 29.6471 23.7931 30.3715 24.0158 31.0856C24.0563 31.2284 24.1372 31.3611 24.2486 31.4937C24.4106 30.3307 23.9753 29.137 24.5219 27.8822C24.6636 28.3719 24.8256 28.7494 24.8762 29.137C25.0078 30.2491 25.0584 31.3611 25.2102 32.4731C25.4127 33.9524 25.7062 35.4215 26.5768 36.6865C27.3562 37.8292 28.0952 39.0126 28.9252 40.1246C29.2795 40.6041 29.7856 40.9816 30.2513 41.3693C31.3445 42.2773 32.4478 43.1648 33.5512 44.0626C33.6524 44.1442 33.7638 44.1952 33.9156 44.2871C32.8122 42.9608 31.6988 41.7161 30.6865 40.3899C29.6743 39.0738 28.5405 37.8394 27.8421 36.3091C27.8927 36.2683 27.9534 36.2172 28.004 36.1764C28.7126 37.0232 29.4212 37.8598 30.2108 38.7882C29.6439 37.4109 29.1276 36.1458 28.6114 34.8706C28.6721 34.84 28.7329 34.8196 28.7936 34.789C29.6034 36.3499 30.2614 38.0026 31.3951 39.3799C31.2129 38.1862 31.0307 37.0028 30.8485 35.8092C31.5469 36.3193 31.5874 37.064 31.7494 37.7476C31.9215 38.5025 32.0632 39.2677 32.2049 40.0328C32.4175 41.155 32.8325 42.165 33.6625 42.9914C34.7659 44.1034 35.7478 45.3787 36.9524 46.3683C38.1873 47.3783 39.6045 48.1638 40.9811 48.9902C42.0541 49.6227 43.1878 50.1634 44.2912 50.7347C44.3924 50.7858 44.4835 50.8572 44.524 51C43.8357 50.7143 43.1069 50.4797 42.4489 50.1328C40.6572 49.1738 38.906 48.123 37.1042 47.1742C35.3935 46.2765 33.6727 45.3481 31.8709 44.6543C30.8788 44.2769 29.7148 44.3483 28.6316 44.2565C27.8421 44.185 27.0525 44.1952 26.263 44.1238C25.9897 44.1034 25.7265 43.9606 25.4633 43.7872C26.3338 43.2771 27.2651 43.5729 28.1761 43.4097C26.8906 43.0118 25.6151 42.6139 24.3296 42.216C24.3397 42.1548 24.3498 42.1038 24.3701 42.0426C24.8458 41.7672 25.3418 41.8998 25.8378 42.012C26.3136 42.114 26.7893 42.2467 27.2955 42.2569C26.101 41.5223 24.9066 40.7776 23.7121 40.043C24.9572 40.1654 26.0099 40.7469 27.0728 41.2979C28.3077 41.9508 29.5123 42.6751 30.7473 43.3383C31.2736 43.6137 31.8405 43.8178 32.3871 44.0524C32.4175 44.0116 32.4377 43.9708 32.4681 43.93C32.0936 43.6137 31.719 43.3077 31.3445 42.9812C28.9252 40.8592 26.1618 39.2779 23.2768 37.921C22.5581 37.5843 21.6775 37.5843 20.8677 37.4109C20.0781 37.2477 19.2886 37.0946 18.5091 36.9008C18.2662 36.8396 18.0435 36.6661 17.7297 36.5029C18.5091 36.0336 19.2177 36.4927 20.0477 36.4111C19.1873 35.9622 18.4383 35.5847 17.6588 35.1868C16.8794 36.1152 16.1101 37.0334 15.3408 37.9516C12.0408 41.91 8.74089 45.8582 5.44094 49.8166C4.62102 50.796 3.5784 51.1326 2.35357 50.8062C1.1085 50.4695 0.410048 49.6023 0.156985 48.3373C-0.106201 47.0314 0.24809 45.9704 1.20973 45.0216C5.87621 40.4409 10.5123 35.8398 15.1586 31.2386C15.2294 31.055 15.361 30.902 15.5432 30.7183ZM22.9225 28.7698C22.2747 29.5349 21.6876 30.2082 21.1309 30.9122C21.0398 31.0244 21.0398 31.2999 21.1106 31.4427C21.8293 32.9118 22.7707 34.2278 23.9044 35.4011C24.2081 35.7173 24.4713 36.0744 24.7648 36.3907C25.1292 36.7886 25.524 37.1558 25.9087 37.5435C25.9694 37.4925 26.0302 37.4517 26.0909 37.4007C25.5645 36.4723 25.0382 35.5337 24.5017 34.6053C23.7627 33.3199 23.0035 32.0344 22.2848 30.7387C22.1532 30.5041 22.1634 30.1776 22.1026 29.892C22.1735 29.8614 22.2443 29.8308 22.3152 29.8002C22.7606 30.5245 23.2161 31.2488 23.6615 31.963C23.702 31.9426 23.7323 31.9324 23.7728 31.912C23.5096 30.9122 23.2262 29.892 22.9225 28.7698ZM18.7925 33.7075C20.7462 35.8806 23.2363 37.0844 25.7467 38.2781C23.7121 36.4315 22.0216 34.1972 19.5315 32.8098C19.2886 33.1158 19.0456 33.4117 18.7925 33.7075Z" fill="#417F56"/>
</svg>
